<svg width="102" height="32" viewBox="0 0 102 32" fill="none" xmlns="http://www.w3.org/2000/svg">
<path d="M3.024 12.352V15.616H6.864V17.104H3.024V20.512H7.344V22H1.2V10.864H7.344V12.352H3.024ZM16.7746 10.88V12.368H13.8146V22H11.9906V12.368H9.01463V10.88H16.7746ZM25.8059 10.88V12.368H22.8459V22H21.0219V12.368H18.0459V10.88H25.8059ZM34.4211 15.44V16.976H27.8451V15.44H34.4211ZM40.6765 22.112C39.9298 22.112 39.2578 21.984 38.6605 21.728C38.0632 21.4613 37.5938 21.088 37.2525 20.608C36.9112 20.128 36.7405 19.568 36.7405 18.928H38.6925C38.7352 19.408 38.9218 19.8027 39.2525 20.112C39.5938 20.4213 40.0685 20.576 40.6765 20.576C41.3058 20.576 41.7965 20.4267 42.1485 20.128C42.5005 19.8187 42.6765 19.424 42.6765 18.944C42.6765 18.5707 42.5645 18.2667 42.3405 18.032C42.1272 17.7973 41.8552 17.616 41.5245 17.488C41.2045 17.36 40.7565 17.2213 40.1805 17.072C39.4552 16.88 38.8632 16.688 38.4045 16.496C37.9565 16.2933 37.5725 15.984 37.2525 15.568C36.9325 15.152 36.7725 14.5973 36.7725 13.904C36.7725 13.264 36.9325 12.704 37.2525 12.224C37.5725 11.744 38.0205 11.376 38.5965 11.12C39.1725 10.864 39.8392 10.736 40.5965 10.736C41.6738 10.736 42.5538 11.008 43.2365 11.552C43.9298 12.0853 44.3138 12.8213 44.3885 13.76H42.3725C42.3405 13.3547 42.1485 13.008 41.7965 12.72C41.4445 12.432 40.9805 12.288 40.4045 12.288C39.8818 12.288 39.4552 12.4213 39.1245 12.688C38.7938 12.9547 38.6285 13.3387 38.6285 13.84C38.6285 14.1813 38.7298 14.464 38.9325 14.688C39.1458 14.9013 39.4125 15.072 39.7325 15.2C40.0525 15.328 40.4898 15.4667 41.0445 15.616C41.7805 15.8187 42.3778 16.0213 42.8365 16.224C43.3058 16.4267 43.7005 16.7413 44.0205 17.168C44.3512 17.584 44.5165 18.144 44.5165 18.848C44.5165 19.4133 44.3618 19.9467 44.0525 20.448C43.7538 20.9493 43.3112 21.3547 42.7245 21.664C42.1485 21.9627 41.4658 22.112 40.6765 22.112ZM53.8528 10.88V12.368H50.8928V22H49.0688V12.368H46.0928V10.88H53.8528Z" fill="#1E87FF"/>
<path d="M75.49 11.52C75.4843 11.4936 75.4843 11.4664 75.49 11.44C75.4852 11.4169 75.4852 11.3931 75.49 11.37V11.28L75.43 11.13C75.4056 11.0891 75.3753 11.052 75.34 11.02L75.25 10.94H75.2L71.26 8.44999L67.54 6.14999C67.4539 6.08172 67.3555 6.03078 67.25 5.99999H67.17C67.0806 5.98507 66.9894 5.98507 66.9 5.99999H66.8C66.6838 6.02568 66.5725 6.06956 66.47 6.12999L59 10.78L58.91 10.85L58.82 10.93L58.72 11L58.67 11.06L58.61 11.21V11.3V11.36C58.6003 11.4263 58.6003 11.4937 58.61 11.56V20.29C58.6097 20.4599 58.6526 20.6272 58.7349 20.7759C58.8171 20.9246 58.9359 21.0499 59.08 21.14L66.58 25.78L66.73 25.84H66.81C66.9792 25.8936 67.1608 25.8936 67.33 25.84H67.41L67.56 25.78L75 21.21C75.1441 21.1199 75.2629 20.9946 75.3451 20.8459C75.4274 20.6972 75.4703 20.5299 75.47 20.36V11.63C75.47 11.63 75.49 11.56 75.49 11.52ZM67 8.16999L68.78 9.26999L63.19 12.73L61.4 11.63L67 8.16999ZM66 23.17L60.5 19.81V13.42L66 16.82V23.17ZM67 15.06L65.09 13.91L70.68 10.44L72.6 11.63L67 15.06ZM73.5 19.78L68 23.2V16.82L73.5 13.42V19.78Z" fill="#1E87FF"/>
<path d="M79.592 16.416C79.592 15.328 79.8427 14.352 80.344 13.488C80.856 12.624 81.544 11.952 82.408 11.472C83.2827 10.9813 84.2373 10.736 85.272 10.736C86.456 10.736 87.5067 11.0293 88.424 11.616C89.352 12.192 90.024 13.0133 90.44 14.08H88.248C87.96 13.4933 87.56 13.056 87.048 12.768C86.536 12.48 85.944 12.336 85.272 12.336C84.536 12.336 83.88 12.5013 83.304 12.832C82.728 13.1627 82.2747 13.6373 81.944 14.256C81.624 14.8747 81.464 15.5947 81.464 16.416C81.464 17.2373 81.624 17.9573 81.944 18.576C82.2747 19.1947 82.728 19.6747 83.304 20.016C83.88 20.3467 84.536 20.512 85.272 20.512C85.944 20.512 86.536 20.368 87.048 20.08C87.56 19.792 87.96 19.3547 88.248 18.768H90.44C90.024 19.8347 89.352 20.656 88.424 21.232C87.5067 21.808 86.456 22.096 85.272 22.096C84.2267 22.096 83.272 21.856 82.408 21.376C81.544 20.8853 80.856 20.208 80.344 19.344C79.8427 18.48 79.592 17.504 79.592 16.416ZM98.703 22L94.399 17.024V22H92.575V10.88H94.399V15.952L98.719 10.88H101.007L96.175 16.448L101.087 22H98.703Z" fill="#1E87FF"/>
</svg>
